<svg xmlns="http://www.w3.org/2000/svg" version="1.1" xmlns:xlink="http://www.w3.org/1999/xlink" xmlns:svgjs="http://svgjs.dev/svgjs" width="100%" height="100%" viewBox="0 0 1000 600"><rect width="1000" height="600" x="0" y="0" fill="#8d4925"/><g><circle r="166.66666666666666" cx="343.0929514567057" cy="365.3151759065998" fill="#320000" transform="matrix(0.7085111866697495,0,0,0.7085111866697495,0,41.17009763934173)"/><path d="M297.31406716719664 414.5758554076608L302.88490624646147 437.73610306127114L348.328510217131 437.73610306127114L306.959871869257 292.6363777837529L255.84226513266952 292.6363777837529L258.7824302022815 302.6948372324255L221.02452088726432 437.73610306127114L257.4413022757918 437.73610306127114L262.13525001850576 414.5758554076608L297.31406716719664 414.5758554076608ZM267.2418525078318 389.3523340209896L278.12562144972884 335.24298037146355L291.22740965466653 389.3523340209896L267.2418525078318 389.3523340209896ZM441.53690110816393 424.6343148563335L441.53690110816393 424.6343148563335L443.03277456463314 437.73610306127114L465.0582216650599 437.73610306127114L465.1613853517129 352.57447972917635L410.0719766789829 352.57447972917635L410.0719766789829 377.7980011158477L426.42342101349175 381.51189383535757L426.42342101349175 394.14944545035644Q426.42342101349175 400.85508508280486 425.18545677365506 405.13637807890655Q423.9474925338185 409.3660892316817 421.3684003674922 411.53252665139587Q418.7377263578393 413.6989640711099 415.7975612882273 414.5242735643343Q412.80581437528883 415.3495830575588 408.47293953586063 415.3495830575588L408.47293953586063 415.3495830575588Q399.7040261703511 415.3495830575588 396.7638611007392 402.3509585392742Q393.8752778744537 389.3523340209896 393.8752778744537 362.4781936478694L393.8752778744537 362.4781936478694Q393.8752778744537 349.5827328162378 394.95849658431075 340.6074920774223Q396.0932971374943 331.6322513386067 397.8986616539228 326.3709033193011Q399.7040261703511 321.10955529999535 402.85051861326923 318.324135760363Q405.9970110561874 315.5387162207305 409.195085342432 314.6618248841796Q412.4447414720031 313.8365153909552 417.3965984313496 313.8365153909552L417.3965984313496 313.8365153909552Q423.4316741005532 313.8365153909552 426.1655117968591 315.28080700409794L426.1655117968591 315.28080700409794L433.23222433259315 331.78699686858636L455.77348986628516 331.78699686858636L457.6304362260401 303.31381935234384Q457.3725270094074 303.0559101357112 456.9598722627953 302.5400917024459Q456.4956356728565 302.07585511250716 454.7934348430811 300.683145342691Q453.03965216997926 299.3420174162013 450.9763784369182 298.1556350196912Q448.9646865471837 296.9692526231811 445.40553935765337 295.42179732338536Q441.89797401144955 293.8743420235895 437.9261720753071 292.842705157059Q433.95437013916455 291.759486447202 428.3319492165732 291.0373406406306Q422.70952829398186 290.31519483405924 416.51970709479866 290.31519483405924L416.51970709479866 290.31519483405924Q402.7989367699427 290.31519483405924 392.01833151469873 292.6879596270794Q381.2377262594548 295.11230626342615 373.70677713378194 299.96099953611963Q366.12424616478256 304.7581109654866 360.91447998880346 311.25742322462884Q355.75629565615077 317.7567354837712 352.7645487432123 326.6803943792602Q349.77280183027375 335.6040532747493 348.4832557471106 345.4046035067893Q347.19370966394746 355.15357189550264 347.19370966394746 367.4300506072159L347.19370966394746 367.4300506072159Q347.19370966394746 383.8846586283778 350.2370384202125 396.78011946000936Q353.2803671764775 409.6239984483143 359.8312612789464 419.682457896987Q366.3821553814152 429.68933550233305 377.57541538327143 435.0022653649653Q388.7686753851276 440.3151952275974 404.14006469643243 440.3151952275974L404.14006469643243 440.3151952275974Q425.80443889357343 440.3151952275974 441.53690110816393 424.6343148563335Z " fill="#ffb48a" transform="matrix(0.7085111866697495,0,0,0.7085111866697495,0,41.17009763934173)"/><path d="M662.5513148148862 416.8806289030731L667.6233247488641 437.9670405730368L708.9977761547394 437.9670405730368L671.333406089459 305.85996701489L624.7930186397173 305.85996701489L627.4699127715389 315.01776272901674L593.0929565523554 437.9670405730368L626.2488733429886 437.9670405730368L630.5225113429145 416.8806289030731L662.5513148148862 416.8806289030731ZM635.1718537823942 393.9156950353398L645.0810583756289 344.65145039883214L657.0096743314659 393.9156950353398L635.1718537823942 393.9156950353398ZM713.3653402645538 310.5093094543697L713.3653402645538 437.9670405730368L750.1374122858936 437.9670405730368L750.1374122858936 290.31519582834653L742.8111757145922 290.31519582834653L706.6026603525833 295.9507624216553L706.6026603525833 306.42352367422086L713.3653402645538 310.5093094543697ZM753.6126783517673 342.1624084867874L786.7685951424007 437.9670405730368L822.2726646802462 437.9670405730368L851.0140543061209 342.1624084867874L820.5819947022535 342.1624084867874L812.2225709221788 376.7741799806922L806.4930782189815 406.64268292522877L801.2801791201708 376.7741799806922L794.0948317137022 342.1624084867874L753.6126783517673 342.1624084867874ZM904.9746044370527 429.18494929846395L906.1017177557144 427.9169468149695L909.7178729864208 437.9670405730368L940.6195631397306 437.9670405730368L937.4260754035224 429.18494929846395L937.4260754035224 383.30204461794153Q937.4260754035224 370.90379811266223 935.5475532057527 362.826152662253Q933.6220679530389 354.7954702667879 929.0666516234477 349.53560811303305Q924.4642722389121 344.3227090142225 917.1380356676107 342.1154454318431Q909.8117990963093 339.90818184946386 898.5406659096917 339.90818184946386L898.5406659096917 339.90818184946386Q885.8136780198026 339.90818184946386 873.5563206793561 343.66522624500305Q861.2520002839652 347.46923369548654 853.5970223280541 352.40035446463173L853.5970223280541 352.40035446463173L860.7823697345228 367.7572734313982Q865.1029707893929 365.50304679407463 872.6170595804713 363.85933987102624Q880.178111426494 362.21563294797784 887.1756066131857 362.21563294797784L887.1756066131857 362.21563294797784Q895.3002151185392 362.21563294797784 898.9633334041898 365.03341624463224Q902.6264516898407 367.85119954128663 902.6264516898407 374.7547686180899L902.6264516898407 374.7547686180899L902.6264516898407 376.7741799806922Q898.7754811844129 376.7741799806922 894.5957692943756 377.1029213653019Q890.4630204592825 377.43166274991154 885.1561952505833 378.4648499586848Q879.8493700418842 379.4510741125139 875.0591384375718 381.0008549256738Q870.2689068332593 382.5036726838895 865.525638283891 385.18056681571113Q860.7823697345228 387.8104978925886 857.4010297785376 391.19183784857387Q854.0196898225522 394.5731778045591 851.9063523500615 399.45733551876015Q849.7460518226264 404.3884562879052 849.7460518226264 410.2588381559352L849.7460518226264 410.2588381559352Q849.7460518226264 440.3151933202488 880.178111426494 440.3151933202488L880.178111426494 440.3151933202488Q884.6865647011409 440.3151933202488 888.9602027010668 439.04719083675434Q893.2808037559369 437.7322252983156 896.239476217424 435.94762921043446Q899.2451117338553 434.11607006760914 901.5463014261231 432.331473979728Q903.8474911183907 430.54687789184686 904.9746044370527 429.18494929846395L904.9746044370527 429.18494929846395ZM897.225700371253 420.49678413377956L897.225700371253 420.49678413377956Q887.6452371626281 420.49678413377956 887.6452371626281 406.40786765050757L887.6452371626281 406.40786765050757Q887.6452371626281 398.51807441987535 891.6840598878327 394.76103002433615Q895.7228826130372 390.95702257385267 902.6264516898407 390.95702257385267L902.6264516898407 390.95702257385267L902.6264516898407 418.0077422217348Q902.6264516898407 418.0077422217348 901.922005865677 418.61826193600996Q901.2645230964577 419.2757447052294 899.9495575580188 419.8862644195044Q898.6815550745245 420.49678413377956 897.225700371253 420.49678413377956ZM951.7498071615155 437.9670405730368L988.1461747433015 437.9670405730368L988.1461747433015 386.4485692992056Q991.4335885893983 380.3903352113987 1002.939537050737 380.3903352113987L1002.939537050737 380.3903352113987Q1010.9232563912578 380.3903352113987 1013.318372193414 382.5036726838895L1013.318372193414 382.5036726838895L1017.1223796438975 342.3972237615086Q1014.0697810725219 341.36403655273534 1011.2519977758675 341.36403655273534L1011.2519977758675 341.36403655273534Q986.267652545532 341.36403655273534 981.6183101060521 368.97831285994846L981.6183101060521 368.97831285994846L978.3778593148995 342.1624084867874L969.2200636007728 342.1624084867874L944.987127249545 348.12671646470585L944.987127249545 360.8537043545949L951.7498071615155 365.03341624463224L951.7498071615155 437.9670405730368ZM1071.223818939662 426.78983349630766L1071.223818939662 426.78983349630766Q1060.844983796985 426.78983349630766 1060.844983796985 405.51556960656706L1060.844983796985 405.51556960656706L1060.844983796985 368.8843867500599Q1060.844983796985 361.652076288647 1063.5688409837508 357.70717967333076Q1066.2926981705166 353.76228305801465 1071.1298928297733 353.76228305801465L1071.1298928297733 353.76228305801465Q1081.5087279724505 353.76228305801465 1081.5087279724505 375.74099277191897L1081.5087279724505 375.74099277191897L1081.5087279724505 411.38595147459705Q1081.5087279724505 418.5712988810658 1078.8318338406289 422.7040477161588Q1076.2019027637514 426.78983349630766 1071.223818939662 426.78983349630766ZM1070.3315208957213 440.3151933202488L1070.3315208957213 440.3151933202488Q1097.0534991589939 440.3151933202488 1109.4987087192173 427.9169468149695Q1121.943918279441 415.5187003096902 1121.943918279441 389.59509398046976L1121.943918279441 389.59509398046976Q1121.943918279441 364.6107487501341 1110.1561914884367 352.259465299799Q1098.4154277523767 339.90818184946386 1071.9282647638254 339.90818184946386L1071.9282647638254 339.90818184946386Q1044.7366559511106 339.90818184946386 1032.667150830441 352.82302195912985Q1020.6446087647155 365.73786206879583 1020.6446087647155 391.19183784857387L1020.6446087647155 391.19183784857387Q1020.6446087647155 416.8806289030731 1032.5732247205524 428.6213926391331Q1044.5018406763893 440.3151933202488 1070.3315208957213 440.3151933202488ZM1213.4749123657646 426.0384246171999L1213.4749123657646 426.0384246171999L1214.8368409591476 437.9670405730368L1234.8900654203378 437.9670405730368L1234.9839915302266 360.4310368600967L1184.8274488497782 360.4310368600967L1184.8274488497782 383.3959707278301L1199.7147372671025 386.77731068381536L1199.7147372671025 398.28325914515415Q1199.7147372671025 404.3884562879052 1198.5876239484405 408.28638984827717Q1197.4605106297786 412.1373603537048 1195.1123578825668 414.109808661363Q1192.7172420804104 416.08225696902105 1190.040347948589 416.8336658481288Q1187.316490761823 417.5850747272367 1183.3715941465068 417.5850747272367L1183.3715941465068 417.5850747272367Q1175.387874805986 417.5850747272367 1172.7109806741641 405.75038488128826Q1170.081049597287 393.9156950353398 1170.081049597287 369.44794340939075L1170.081049597287 369.44794340939075Q1170.081049597287 357.70717967333076 1171.11423680606 349.53560811303305Q1172.1004609598892 341.36403655273534 1173.7441678829377 336.5738049484229Q1175.387874805986 331.78357334411044 1178.2526211575846 329.2475683771214Q1181.1173675091832 326.7115634101325 1184.0760399706703 325.91319147608044Q1186.9877493772133 325.16178259697256 1191.4962026518601 325.16178259697256L1191.4962026518601 325.16178259697256Q1197.0378431352806 325.16178259697256 1199.4799219923812 326.4767481354113L1199.4799219923812 326.4767481354113L1205.913860519742 341.5049257175681L1226.4367155303748 341.5049257175681L1228.1273855083675 315.58131938834765Q1227.8925702336462 315.34650411362645 1227.5168657940924 314.87687356418405Q1227.094198299594 314.4542060696858 1225.5444174864342 313.18620358619137Q1223.94767361833 311.96516415764114 1222.1161144755047 310.88501389392366Q1220.237592277735 309.8048636302061 1217.0441045415268 308.3959719818789Q1213.8036537503742 306.9870803335517 1210.1874985196678 306.0478192346669Q1206.6183063439055 305.06159508083783 1201.4523703000393 304.4041123116185Q1196.333397311117 303.7466295423992 1190.6978307178083 303.7466295423992L1190.6978307178083 303.7466295423992Q1178.2056581026404 303.7466295423992 1168.3903796192944 305.9069300698342Q1158.575101135948 308.1141936522135 1151.7184951140891 312.52872081697205Q1144.8149260372857 316.89628492678634 1140.1186205428617 322.81362984976056Q1135.3753519934935 328.73097477273484 1132.6514948067277 336.85558327808826Q1129.974600674906 344.9801917834418 1128.7535612463557 353.9031722228474Q1127.5794848727496 362.7791896073087 1127.5794848727496 373.9563966840378L1127.5794848727496 373.9563966840378Q1127.5794848727496 388.9376112112503 1130.3503051144598 400.6783749473103Q1133.12112535617 412.372175628426 1139.0854333340885 421.5299713425528Q1145.049741312007 430.64080400173543 1155.240724234907 435.47799866099206Q1165.4786702127512 440.3151933202488 1179.4266975311907 440.3151933202488L1179.4266975311907 440.3151933202488Q1199.1511806077715 440.3151933202488 1213.4749123657646 426.0384246171999Z " fill="#ffb48a" transform="matrix(0.7085111866697495,0,0,0.7085111866697495,0,41.17009763934173)"/></g></svg>